<?xml version="1.0" encoding="UTF-8" standalone="no"?>
<!-- Created with Inkscape (http://www.inkscape.org/) -->

<svg
   xmlns:dc="http://purl.org/dc/elements/1.1/"
   xmlns:cc="http://creativecommons.org/ns#"
   xmlns:rdf="http://www.w3.org/1999/02/22-rdf-syntax-ns#"
   xmlns:svg="http://www.w3.org/2000/svg"
   xmlns="http://www.w3.org/2000/svg"
   xmlns:xlink="http://www.w3.org/1999/xlink"
   xmlns:sodipodi="http://sodipodi.sourceforge.net/DTD/sodipodi-0.dtd"
   xmlns:inkscape="http://www.inkscape.org/namespaces/inkscape"
   width="1023.9901"
   height="68.79673"
   viewBox="0 0 1023.9901 68.79673"
   version="1.1"
   id="svg8"
   inkscape:version="0.92.3 (2405546, 2018-03-11)"
   sodipodi:docname="CitationNeededBible-Horizontal.svg">
  <defs
     id="defs2">
    <linearGradient
       inkscape:collect="always"
       id="linearGradient5231">
      <stop
         style="stop-color:#947700;stop-opacity:1"
         offset="0"
         id="stop5227" />
      <stop
         style="stop-color:#c59e00;stop-opacity:1"
         offset="1"
         id="stop5229" />
    </linearGradient>
    <linearGradient
       inkscape:collect="always"
       xlink:href="#linearGradient5231"
       id="linearGradient5233"
       x1="531.5"
       y1="734.01965"
       x2="540.5"
       y2="745.51965"
       gradientUnits="userSpaceOnUse"
       spreadMethod="reflect" />
    <linearGradient
       inkscape:collect="always"
       xlink:href="#linearGradient5231"
       id="linearGradient5274"
       gradientUnits="userSpaceOnUse"
       x1="531.5"
       y1="734.01965"
       x2="540.5"
       y2="745.51965"
       spreadMethod="reflect"
       gradientTransform="translate(7,190.5)" />
    <linearGradient
       inkscape:collect="always"
       xlink:href="#linearGradient5231"
       id="linearGradient5511"
       gradientUnits="userSpaceOnUse"
       gradientTransform="translate(7,190.5)"
       x1="531.5"
       y1="734.01965"
       x2="540.5"
       y2="745.51965"
       spreadMethod="reflect" />
    <linearGradient
       inkscape:collect="always"
       xlink:href="#linearGradient5231"
       id="linearGradient4859"
       gradientUnits="userSpaceOnUse"
       gradientTransform="translate(7,190.5)"
       x1="531.5"
       y1="734.01965"
       x2="540.5"
       y2="745.51965"
       spreadMethod="reflect" />
    <linearGradient
       inkscape:collect="always"
       xlink:href="#linearGradient5231"
       id="linearGradient4861"
       gradientUnits="userSpaceOnUse"
       gradientTransform="translate(7,190.5)"
       x1="531.5"
       y1="734.01965"
       x2="540.5"
       y2="745.51965"
       spreadMethod="reflect" />
    <linearGradient
       inkscape:collect="always"
       xlink:href="#linearGradient5231"
       id="linearGradient4863"
       gradientUnits="userSpaceOnUse"
       gradientTransform="translate(7,190.5)"
       x1="531.5"
       y1="734.01965"
       x2="540.5"
       y2="745.51965"
       spreadMethod="reflect" />
    <linearGradient
       inkscape:collect="always"
       xlink:href="#linearGradient5231"
       id="linearGradient4865"
       gradientUnits="userSpaceOnUse"
       gradientTransform="translate(7,190.5)"
       x1="531.5"
       y1="734.01965"
       x2="540.5"
       y2="745.51965"
       spreadMethod="reflect" />
    <linearGradient
       inkscape:collect="always"
       xlink:href="#linearGradient5231"
       id="linearGradient4867"
       gradientUnits="userSpaceOnUse"
       gradientTransform="translate(7,190.5)"
       x1="531.5"
       y1="734.01965"
       x2="540.5"
       y2="745.51965"
       spreadMethod="reflect" />
    <linearGradient
       inkscape:collect="always"
       xlink:href="#linearGradient5231"
       id="linearGradient4869"
       gradientUnits="userSpaceOnUse"
       gradientTransform="translate(7,190.5)"
       x1="531.5"
       y1="734.01965"
       x2="540.5"
       y2="745.51965"
       spreadMethod="reflect" />
    <linearGradient
       inkscape:collect="always"
       xlink:href="#linearGradient5231"
       id="linearGradient4871"
       gradientUnits="userSpaceOnUse"
       gradientTransform="translate(7,190.5)"
       x1="531.5"
       y1="734.01965"
       x2="540.5"
       y2="745.51965"
       spreadMethod="reflect" />
    <linearGradient
       inkscape:collect="always"
       xlink:href="#linearGradient5231"
       id="linearGradient4873"
       gradientUnits="userSpaceOnUse"
       gradientTransform="translate(7,190.5)"
       x1="531.5"
       y1="734.01965"
       x2="540.5"
       y2="745.51965"
       spreadMethod="reflect" />
    <linearGradient
       inkscape:collect="always"
       xlink:href="#linearGradient5231"
       id="linearGradient4875"
       gradientUnits="userSpaceOnUse"
       gradientTransform="translate(7,190.5)"
       x1="531.5"
       y1="734.01965"
       x2="540.5"
       y2="745.51965"
       spreadMethod="reflect" />
  </defs>
  <sodipodi:namedview
     id="base"
     pagecolor="#ffffff"
     bordercolor="#666666"
     borderopacity="1.0"
     inkscape:pageopacity="0.0"
     inkscape:pageshadow="2"
     inkscape:zoom="0.5"
     inkscape:cx="248.65802"
     inkscape:cy="-136.53065"
     inkscape:document-units="px"
     inkscape:current-layer="layer1"
     showgrid="false"
     units="px"
     inkscape:window-width="1920"
     inkscape:window-height="1016"
     inkscape:window-x="0"
     inkscape:window-y="27"
     inkscape:window-maximized="1"
     showguides="false"
     fit-margin-top="0"
     fit-margin-left="0"
     fit-margin-right="0"
     fit-margin-bottom="0"
     inkscape:snap-global="false" />
  <metadata
     id="metadata5">
    <rdf:RDF>
      <cc:Work
         rdf:about="">
        <dc:format>image/svg+xml</dc:format>
        <dc:type
           rdf:resource="http://purl.org/dc/dcmitype/StillImage" />
        <dc:title></dc:title>
      </cc:Work>
    </rdf:RDF>
  </metadata>
  <g
     inkscape:label="Layer 1"
     inkscape:groupmode="layer"
     id="layer1"
     transform="translate(-106.32266,-621.85362)">
    <g
       id="g5321"
       inkscape:export-xdpi="170.47"
       inkscape:export-ydpi="170.47"
       transform="matrix(1.7777569,0,0,1.8015999,-399.71337,-1012.6298)"
       style="stroke-width:0.55877203">
      <g
         aria-label="The       Holy       Bible"
         style="font-style:normal;font-variant:normal;font-weight:bold;font-stretch:normal;font-size:48px;line-height:89.99999762%;font-family:'Trajan Pro';-inkscape-font-specification:'Trajan Pro Bold';font-variant-ligatures:normal;font-variant-position:normal;font-variant-caps:normal;font-variant-numeric:normal;font-variant-alternates:normal;font-feature-settings:normal;text-indent:0;text-align:center;text-decoration:none;text-decoration-line:none;text-decoration-style:solid;text-decoration-color:#000000;letter-spacing:normal;word-spacing:normal;text-transform:none;writing-mode:lr-tb;direction:ltr;text-orientation:mixed;dominant-baseline:auto;baseline-shift:baseline;text-anchor:middle;white-space:normal;shape-padding:0;opacity:1;vector-effect:none;fill:url(#linearGradient4875);fill-opacity:1;fill-rule:nonzero;stroke:#ffcc00;stroke-width:0.83815801;stroke-linejoin:miter;stroke-miterlimit:4;stroke-dasharray:none;stroke-dashoffset:0;stroke-opacity:1;paint-order:stroke fill markers"
         id="text5272">
        <path
           d="m 298.65169,930.69904 c 0,4.416 0,8.208 -0.24,10.224 -0.144,1.392 -0.432,2.448 -1.392,2.64 -0.432,0.096 -1.008,0.192 -1.728,0.192 -0.576,0 -0.768,0.144 -0.768,0.384 0,0.336 0.336,0.48 0.96,0.48 1.92,0 4.944,-0.144 6.048,-0.144 1.344,0 4.368,0.144 7.536,0.144 0.528,0 0.912,-0.144 0.912,-0.48 0,-0.24 -0.24,-0.384 -0.768,-0.384 -0.72,0 -1.776,-0.096 -2.448,-0.192 -1.44,-0.192 -1.728,-1.248 -1.872,-2.592 -0.24,-2.064 -0.24,-5.856 -0.24,-10.272 v -19.68 l 6.048,0.144 c 4.272,0.096 5.568,1.44 5.664,2.688 l 0.048,0.528 c 0.048,0.72 0.144,0.96 0.528,0.96 0.288,0 0.384,-0.288 0.432,-0.768 0,-1.248 0.144,-4.56 0.144,-5.568 0,-0.72 -0.048,-1.008 -0.384,-1.008 -0.192,0 -0.576,0.096 -1.296,0.24 -0.72,0.096 -1.776,0.24 -3.312,0.24 h -19.008 c -1.584,0 -3.408,-0.096 -4.8,-0.24 -1.2,-0.096 -1.68,-0.576 -2.064,-0.576 -0.288,0 -0.432,0.288 -0.576,0.912 -0.096,0.384 -1.008,4.752 -1.008,5.52 0,0.528 0.096,0.768 0.432,0.768 0.288,0 0.432,-0.192 0.528,-0.576 0.096,-0.384 0.336,-0.96 0.816,-1.68 0.72,-1.056 1.872,-1.296 4.656,-1.392 l 7.152,-0.192 z"
           style="fill:url(#linearGradient4859);fill-opacity:1;stroke:#ffcc00;stroke-width:0.83815801;stroke-miterlimit:4;stroke-dasharray:none;stroke-opacity:1"
           id="path4816"
           inkscape:connector-curvature="0" />
        <path
           d="m 331.38469,927.05104 c -0.144,0 -0.288,-0.048 -0.288,-0.288 v -0.864 c 0,-6.192 0,-7.68 0.096,-8.976 0.096,-1.44 0.432,-2.016 1.584,-2.208 0.48,-0.096 0.864,-0.144 1.2,-0.144 0.528,0 0.768,-0.144 0.768,-0.432 0,-0.288 -0.288,-0.384 -0.864,-0.384 -1.68,0 -4.608,0.096 -5.616,0.096 -1.152,0 -3.936,-0.096 -6.192,-0.096 -0.576,0 -0.912,0.096 -0.912,0.384 0,0.288 0.288,0.432 0.72,0.432 0.624,0 1.344,0.048 1.68,0.144 1.344,0.384 1.728,0.816 1.824,2.208 0.048,1.296 0.048,2.448 0.048,8.64 v 7.2 c 0,3.744 0,6.96 -0.192,8.688 -0.144,1.2 -0.384,1.968 -1.248,2.16 -0.384,0.096 -0.864,0.144 -1.488,0.144 -0.528,0 -0.672,0.24 -0.672,0.432 0,0.288 0.288,0.432 0.816,0.432 1.68,0 4.464,-0.144 5.424,-0.144 1.2,0 4.128,0.144 6.864,0.144 0.528,0 0.864,-0.144 0.864,-0.432 0,-0.192 -0.192,-0.432 -0.672,-0.432 -0.624,0 -1.584,-0.048 -2.16,-0.144 -1.248,-0.192 -1.488,-0.96 -1.632,-2.112 -0.192,-1.776 -0.24,-4.896 -0.24,-8.64 v -3.12 c 0,-0.192 0.144,-0.24 0.288,-0.24 h 15.936 c 0.096,0 0.24,0.096 0.24,0.24 v 3.12 c 0,3.744 0,6.864 -0.192,8.592 -0.144,1.2 -0.384,1.968 -1.248,2.16 -0.384,0.096 -0.864,0.144 -1.536,0.144 -0.48,0 -0.672,0.24 -0.672,0.432 0,0.288 0.336,0.432 0.912,0.432 1.632,0 4.608,-0.144 5.568,-0.144 1.152,0 3.936,0.144 6.672,0.144 0.528,0 0.864,-0.144 0.864,-0.432 0,-0.192 -0.24,-0.432 -0.672,-0.432 -0.672,0 -1.584,-0.048 -2.16,-0.144 -1.296,-0.192 -1.536,-0.96 -1.68,-2.112 -0.192,-1.776 -0.192,-4.992 -0.192,-8.736 v -7.2 c 0,-6.192 0,-7.344 0.096,-8.64 0.096,-1.44 0.432,-2.016 1.536,-2.208 0.528,-0.096 0.912,-0.144 1.248,-0.144 0.48,0 0.768,-0.144 0.768,-0.432 0,-0.288 -0.288,-0.384 -0.912,-0.384 -1.632,0 -4.416,0.096 -5.424,0.096 -1.104,0 -4.08,-0.096 -6.336,-0.096 -0.624,0 -0.912,0.096 -0.912,0.384 0,0.288 0.24,0.432 0.72,0.432 0.576,0 1.296,0.048 1.632,0.144 1.344,0.384 1.728,0.816 1.824,2.208 0.048,1.296 0.096,2.784 0.096,8.976 v 0.864 c 0,0.24 -0.144,0.288 -0.24,0.288 z"
           style="fill:url(#linearGradient4861);fill-opacity:1;stroke:#ffcc00;stroke-width:0.83815801;stroke-miterlimit:4;stroke-dasharray:none;stroke-opacity:1"
           id="path4818"
           inkscape:connector-curvature="0" />
        <path
           d="m 367.05769,932.76304 c 0,3.744 0,6.96 -0.192,8.688 -0.144,1.2 -0.384,1.968 -1.248,2.16 -0.384,0.096 -0.864,0.144 -1.488,0.144 -0.528,0 -0.672,0.24 -0.672,0.432 0,0.288 0.288,0.432 0.816,0.432 0.864,0 1.92,-0.048 2.928,-0.096 1.008,0 1.92,-0.048 2.4,-0.048 1.248,0 2.832,0.048 4.896,0.096 2.064,0.096 4.608,0.144 7.776,0.144 1.584,0 1.968,0 2.256,-1.056 0.24,-0.816 0.576,-3.6 0.576,-4.512 0,-0.432 -0.048,-0.96 -0.384,-0.96 -0.288,0 -0.384,0.192 -0.48,0.624 -0.288,1.68 -0.768,2.544 -1.824,3.024 -1.104,0.48 -2.88,0.528 -3.984,0.528 -4.32,0 -5.616,-0.624 -5.712,-3.408 -0.048,-1.2 0,-4.656 0,-6.048 v -3.264 c 0,-0.24 0.048,-0.432 0.24,-0.432 1.056,0 5.856,0.096 6.624,0.192 1.584,0.144 2.112,0.768 2.352,1.584 0.096,0.528 0.096,1.056 0.144,1.488 0,0.192 0.096,0.336 0.384,0.336 0.384,0 0.432,-0.576 0.432,-0.912 0,-0.288 0.096,-1.92 0.192,-2.736 0.24,-2.064 0.336,-2.736 0.336,-2.976 0,-0.24 -0.144,-0.432 -0.336,-0.432 -0.192,0 -0.336,0.24 -0.672,0.528 -0.432,0.384 -1.008,0.528 -2.016,0.624 -0.96,0.096 -6.432,0.096 -7.392,0.096 -0.24,0 -0.288,-0.192 -0.288,-0.432 v -10.08 c 0,-0.24 0.096,-0.384 0.288,-0.384 0.864,0 5.904,0.096 6.624,0.192 2.112,0.192 2.448,0.768 2.784,1.488 0.24,0.48 0.288,1.2 0.288,1.488 0,0.336 0.048,0.528 0.336,0.528 0.336,0 0.432,-0.48 0.48,-0.672 0.096,-0.48 0.192,-2.256 0.24,-2.688 0.096,-1.872 0.336,-2.352 0.336,-2.64 0,-0.192 -0.048,-0.384 -0.288,-0.384 -0.192,0 -0.432,0.144 -0.672,0.192 -0.336,0.048 -1.008,0.192 -1.776,0.24 -0.816,0.048 -10.176,0 -11.52,0 -1.2,0 -3.888,-0.096 -6.096,-0.096 -0.624,0 -0.96,0.096 -0.96,0.384 0,0.288 0.288,0.432 0.72,0.432 0.624,0 1.344,0.048 1.68,0.144 1.344,0.384 1.728,0.816 1.824,2.208 0.048,1.296 0.048,2.448 0.048,8.64 z"
           style="fill:url(#linearGradient4863);fill-opacity:1;stroke:#ffcc00;stroke-width:0.83815801;stroke-miterlimit:4;stroke-dasharray:none;stroke-opacity:1"
           id="path4820"
           inkscape:connector-curvature="0" />
        <path
           d="m 503.02444,923.59504 c -0.144,0 -0.288,-0.096 -0.288,-0.336 v -1.008 c 0,-7.296 0,-8.64 0.096,-10.176 0.096,-1.68 0.48,-2.496 1.776,-2.736 0.576,-0.096 1.008,-0.144 1.392,-0.144 0.576,0 0.864,-0.096 0.864,-0.432 0,-0.336 -0.336,-0.432 -1.008,-0.432 -1.872,0 -4.896,0.144 -6.048,0.144 -1.296,0 -4.32,-0.144 -6.912,-0.144 -0.672,0 -1.008,0.096 -1.008,0.432 0,0.336 0.288,0.432 0.816,0.432 0.672,0 1.488,0.048 1.872,0.144 1.584,0.336 1.968,1.104 2.064,2.736 0.096,1.536 0.096,2.88 0.096,10.176 v 8.448 c 0,4.416 0,8.208 -0.24,10.224 -0.192,1.392 -0.432,2.448 -1.392,2.64 -0.432,0.096 -1.008,0.192 -1.728,0.192 -0.576,0 -0.768,0.144 -0.768,0.384 0,0.336 0.336,0.48 0.96,0.48 1.92,0 4.944,-0.144 6.048,-0.144 1.344,0 4.368,0.144 7.488,0.144 0.576,0 0.96,-0.144 0.96,-0.48 0,-0.24 -0.24,-0.384 -0.768,-0.384 -0.72,0 -1.776,-0.096 -2.448,-0.192 -1.44,-0.192 -1.728,-1.248 -1.872,-2.592 -0.24,-2.064 -0.24,-5.856 -0.24,-10.272 v -4.224 c 0,-0.24 0.144,-0.288 0.288,-0.288 h 18.336 c 0.144,0 0.288,0.096 0.288,0.288 v 4.224 c 0,4.416 0,8.208 -0.24,10.224 -0.192,1.392 -0.432,2.448 -1.392,2.64 -0.432,0.096 -1.008,0.192 -1.728,0.192 -0.576,0 -0.768,0.144 -0.768,0.384 0,0.336 0.336,0.48 1.008,0.48 1.872,0 4.896,-0.144 6,-0.144 1.344,0 4.368,0.144 7.488,0.144 0.576,0 0.96,-0.144 0.96,-0.48 0,-0.24 -0.24,-0.384 -0.768,-0.384 -0.72,0 -1.776,-0.096 -2.448,-0.192 -1.44,-0.192 -1.728,-1.248 -1.872,-2.592 -0.24,-2.064 -0.24,-5.856 -0.24,-10.272 v -8.448 c 0,-7.296 0,-8.64 0.096,-10.176 0.096,-1.68 0.48,-2.496 1.776,-2.736 0.576,-0.096 1.008,-0.144 1.392,-0.144 0.576,0 0.864,-0.096 0.864,-0.432 0,-0.336 -0.336,-0.432 -1.008,-0.432 -1.872,0 -4.896,0.144 -6.048,0.144 -1.296,0 -4.32,-0.144 -6.912,-0.144 -0.672,0 -1.008,0.096 -1.008,0.432 0,0.336 0.288,0.432 0.816,0.432 0.672,0 1.488,0.048 1.872,0.144 1.584,0.336 1.968,1.104 2.064,2.736 0.096,1.536 0.096,2.88 0.096,10.176 v 1.008 c 0,0.24 -0.144,0.336 -0.288,0.336 z"
           style="fill:none;stroke:#ffcc00;stroke-width:0.55877203;stroke-opacity:0.1254902"
           id="path4822"
           inkscape:connector-curvature="0" />
        <path
           d="m 554.66719,945.14704 c 10.896,0 17.712,-7.344 17.712,-16.704 0,-9.36 -6.624,-15.264 -17.28,-15.264 -12.816,0 -17.712,9.024 -17.712,15.984 0,7.248 4.992,15.984 17.28,15.984 z m 1.728,-2.208 c -7.968,0 -12.768,-6.624 -12.768,-15.024 0,-10.08 5.52,-12.576 10.224,-12.576 6.816,0 12.24,5.568 12.24,14.592 0,11.616 -6.72,13.008 -9.696,13.008 z"
           style="fill:none;stroke:#ffcc00;stroke-width:0.55877203;stroke-opacity:0.1254902"
           id="path4824"
           inkscape:connector-curvature="0" />
        <path
           d="m 585.90919,925.56304 c 0,-6.192 0,-7.344 0.096,-8.64 0.096,-1.44 0.432,-2.016 1.584,-2.208 0.48,-0.096 1.152,-0.144 1.632,-0.144 0.528,0 0.768,-0.144 0.768,-0.432 0,-0.288 -0.288,-0.384 -0.912,-0.384 -1.632,0 -5.088,0.096 -6.096,0.096 -1.152,0 -3.84,-0.096 -5.808,-0.096 -0.624,0 -0.912,0.096 -0.912,0.384 0,0.288 0.24,0.432 0.72,0.432 0.528,0 1.056,0.048 1.392,0.144 1.344,0.384 1.728,0.816 1.824,2.208 0.048,1.296 0.048,2.448 0.048,8.64 v 7.2 c 0,3.744 0,6.96 -0.192,8.688 -0.144,1.2 -0.384,1.968 -1.248,2.16 -0.384,0.096 -0.864,0.144 -1.488,0.144 -0.528,0 -0.672,0.24 -0.672,0.432 0,0.288 0.288,0.432 0.816,0.432 0.864,0 1.92,-0.048 2.928,-0.096 1.008,0 1.92,-0.048 2.4,-0.048 1.728,0 3.504,0.048 5.616,0.096 2.112,0.096 4.56,0.144 7.584,0.144 2.208,0 2.4,-0.192 2.688,-1.104 0.336,-1.2 0.624,-4.224 0.624,-4.704 0,-0.48 -0.096,-0.912 -0.384,-0.912 -0.336,0 -0.432,0.24 -0.48,0.624 -0.096,0.768 -0.528,1.92 -1.056,2.448 -1.056,1.104 -2.688,1.152 -4.944,1.152 -3.264,0 -4.896,-0.24 -5.616,-0.864 -0.912,-0.768 -0.912,-3.36 -0.912,-8.592 z"
           style="fill:none;stroke:#ffcc00;stroke-width:0.55877203;stroke-opacity:0.1254902"
           id="path4826"
           inkscape:connector-curvature="0" />
        <path
           d="m 609.46144,937.37104 c 0,0.672 0,2.352 -0.144,4.08 -0.096,1.2 -0.432,1.968 -1.296,2.16 -0.384,0.096 -0.912,0.144 -1.488,0.144 -0.48,0 -0.672,0.24 -0.672,0.432 0,0.336 0.336,0.432 0.912,0.432 1.584,0 4.416,-0.144 5.472,-0.144 1.152,0 3.984,0.144 6.624,0.144 0.576,0 0.912,-0.144 0.912,-0.432 0,-0.192 -0.24,-0.432 -0.72,-0.432 -0.576,0 -1.488,-0.048 -2.112,-0.144 -1.248,-0.192 -1.632,-0.96 -1.728,-2.16 -0.096,-1.728 -0.096,-3.408 -0.096,-4.08 v -3.264 c 0,-1.344 -0.096,-2.592 0.528,-4.08 0.768,-1.728 6.816,-11.424 8.208,-13.056 0.912,-1.104 1.296,-1.488 2.208,-1.92 0.624,-0.288 1.392,-0.48 1.824,-0.48 0.48,0 0.816,-0.192 0.816,-0.48 0,-0.24 -0.288,-0.336 -0.768,-0.336 -0.816,0 -3.6,0.096 -4.512,0.096 -1.248,0 -2.736,-0.096 -4.128,-0.096 -0.48,0 -0.72,0.096 -0.72,0.384 0,0.336 0.384,0.384 0.768,0.48 0.72,0.144 0.912,0.528 0.912,0.912 0,0.528 -0.192,1.248 -0.624,2.16 -0.624,1.248 -5.76,9.984 -6.288,10.944 -0.72,-1.152 -6.24,-10.704 -7.008,-11.952 -0.336,-0.576 -0.528,-1.056 -0.528,-1.392 0,-0.336 0.24,-0.528 0.576,-0.624 0.672,-0.192 0.96,-0.192 0.96,-0.528 0,-0.288 -0.24,-0.384 -0.624,-0.384 -1.92,0 -3.888,0.096 -4.8,0.096 -1.392,0 -4.56,-0.096 -5.28,-0.096 -0.528,0 -0.816,0.096 -0.816,0.384 0,0.288 0.288,0.432 0.624,0.432 0.528,0 1.248,0.24 1.776,0.528 0.816,0.432 1.68,1.392 2.736,2.88 1.488,2.16 7.248,11.136 7.536,11.76 0.576,1.2 0.96,2.064 0.96,4.272 z"
           style="fill:none;stroke:#ffcc00;stroke-width:0.55877203;stroke-opacity:0.1254902"
           id="path4828"
           inkscape:connector-curvature="0" />
        <path
           d="m 735.23644,930.69904 c 0,4.416 0,8.208 -0.24,10.224 -0.192,1.392 -0.432,2.448 -1.392,2.64 -0.432,0.096 -1.008,0.192 -1.728,0.192 -0.576,0 -0.768,0.144 -0.768,0.384 0,0.336 0.336,0.48 0.96,0.48 0.96,0 2.208,-0.096 3.312,-0.096 1.152,-0.048 2.208,-0.048 2.736,-0.048 0.72,0 2.16,0.048 3.6,0.144 1.392,0.048 2.784,0.144 3.36,0.144 8.832,0 12.816,-5.328 12.816,-10.464 0,-5.616 -4.8,-9.024 -8.736,-10.368 2.64,-2.112 4.896,-4.464 4.896,-8.4 0,-2.544 -1.536,-7.2 -10.224,-7.2 -1.632,0 -3.504,0.144 -5.856,0.144 -0.96,0 -3.984,-0.144 -6.528,-0.144 -0.72,0 -1.056,0.096 -1.056,0.432 0,0.336 0.288,0.432 0.816,0.432 0.672,0 1.488,0.048 1.872,0.144 1.584,0.336 1.968,1.104 2.064,2.736 0.096,1.536 0.096,2.88 0.096,10.176 z m 5.76,-19.488 c 0,-0.528 0.096,-0.72 0.432,-0.816 0.48,-0.096 0.912,-0.096 1.584,-0.096 4.128,0 6,4.224 6,7.44 0,2.352 -0.72,4.08 -1.968,5.088 -0.816,0.72 -1.872,0.912 -3.456,0.912 -1.104,0 -1.824,-0.048 -2.256,-0.144 -0.192,-0.048 -0.336,-0.144 -0.336,-0.528 z m 10.992,25.248 c 0,4.992 -3.648,6.144 -5.808,6.144 -1.104,0 -2.208,-0.048 -3.504,-0.576 -1.536,-0.624 -1.68,-1.44 -1.68,-4.608 v -11.376 c 0,-0.24 0.096,-0.336 0.288,-0.336 0.72,0 1.2,0 2.064,0.048 1.872,0.096 2.976,0.432 3.984,1.152 3.648,2.544 4.656,6.576 4.656,9.552 z"
           style="fill:url(#linearGradient4865);fill-opacity:1;stroke:#ffcc00;stroke-width:0.83815801;stroke-miterlimit:4;stroke-dasharray:none;stroke-opacity:1"
           id="path4830"
           inkscape:connector-curvature="0" />
        <path
           d="m 767.27644,932.76304 c 0,3.936 0,7.2 -0.192,8.88 -0.144,1.2 -0.384,1.776 -1.248,1.968 -0.384,0.096 -0.864,0.144 -1.488,0.144 -0.528,0 -0.672,0.24 -0.672,0.432 0,0.288 0.288,0.432 0.816,0.432 1.68,0 4.56,-0.144 5.52,-0.144 1.152,0 4.032,0.144 6.816,0.144 0.48,0 0.816,-0.144 0.816,-0.432 0,-0.192 -0.192,-0.432 -0.672,-0.432 -0.624,0 -1.584,-0.048 -2.16,-0.144 -1.248,-0.192 -1.536,-0.816 -1.68,-1.92 -0.192,-1.728 -0.192,-4.992 -0.192,-8.928 v -7.2 c 0,-6.192 0,-7.344 0.096,-8.64 0.096,-1.44 0.432,-2.016 1.584,-2.208 0.48,-0.096 0.816,-0.144 1.248,-0.144 0.432,0 0.672,-0.096 0.672,-0.48 0,-0.24 -0.336,-0.336 -0.864,-0.336 -1.632,0 -4.368,0.096 -5.424,0.096 -1.2,0 -4.08,-0.096 -5.664,-0.096 -0.672,0 -1.008,0.096 -1.008,0.336 0,0.384 0.24,0.48 0.672,0.48 0.528,0 1.056,0.048 1.536,0.192 0.912,0.288 1.344,0.768 1.44,2.16 0.048,1.296 0.048,2.448 0.048,8.64 z"
           style="fill:url(#linearGradient4867);fill-opacity:1;stroke:#ffcc00;stroke-width:0.83815801;stroke-miterlimit:4;stroke-dasharray:none;stroke-opacity:1"
           id="path4832"
           inkscape:connector-curvature="0" />
        <path
           d="m 786.77644,932.76304 c 0,3.744 0,6.96 -0.192,8.688 -0.144,1.2 -0.384,1.968 -1.248,2.16 -0.384,0.096 -0.864,0.144 -1.488,0.144 -0.528,0 -0.672,0.24 -0.672,0.432 0,0.288 0.288,0.432 0.816,0.432 0.864,0 1.92,-0.048 2.928,-0.096 1.008,0 1.92,-0.048 2.4,-0.048 0.672,0 2.16,0.048 3.6,0.096 1.44,0.096 2.88,0.144 3.36,0.144 7.776,0 11.232,-4.512 11.232,-8.88 0,-4.8 -4.32,-7.728 -7.776,-8.832 2.4,-1.536 4.752,-3.984 4.752,-7.152 0,-2.16 -1.344,-6.096 -8.976,-6.096 -1.44,0 -4.224,0.096 -6.336,0.096 -0.816,0 -3.504,-0.096 -5.712,-0.096 -0.624,0 -0.96,0.096 -0.96,0.384 0,0.288 0.288,0.432 0.72,0.432 0.624,0 1.344,0.048 1.68,0.144 1.344,0.384 1.728,0.816 1.824,2.208 0.048,1.296 0.048,2.448 0.048,8.64 z m 5.472,-16.368 c 0,-0.432 0.096,-0.624 0.384,-0.672 0.432,-0.096 1.248,-0.096 1.824,-0.096 3.648,0 5.28,3.408 5.28,6.144 0,1.968 -0.816,3.456 -1.92,4.32 -0.72,0.576 -1.92,0.72 -3.312,0.72 -0.96,0 -1.584,-0.048 -1.968,-0.144 -0.144,-0.048 -0.288,-0.096 -0.288,-0.432 z m 0,12.576 c 0,-0.24 0.096,-0.288 0.24,-0.288 h 1.824 c 1.632,0 2.784,0.432 3.648,1.056 3.168,2.16 3.984,5.376 3.984,7.248 0,4.512 -2.928,5.76 -5.184,5.76 -0.96,0 -1.92,-0.048 -3.024,-0.48 -1.344,-0.528 -1.488,-1.344 -1.488,-4.032 z"
           style="fill:url(#linearGradient4869);fill-opacity:1;stroke:#ffcc00;stroke-width:0.83815801;stroke-miterlimit:4;stroke-dasharray:none;stroke-opacity:1"
           id="path4834"
           inkscape:connector-curvature="0" />
        <path
           d="m 821.31544,925.56304 c 0,-6.192 0,-7.344 0.096,-8.64 0.096,-1.44 0.432,-2.016 1.584,-2.208 0.48,-0.096 1.152,-0.144 1.632,-0.144 0.528,0 0.768,-0.144 0.768,-0.432 0,-0.288 -0.288,-0.384 -0.912,-0.384 -1.632,0 -5.088,0.096 -6.096,0.096 -1.152,0 -3.84,-0.096 -5.808,-0.096 -0.624,0 -0.912,0.096 -0.912,0.384 0,0.288 0.24,0.432 0.72,0.432 0.528,0 1.056,0.048 1.392,0.144 1.344,0.384 1.728,0.816 1.824,2.208 0.048,1.296 0.048,2.448 0.048,8.64 v 7.2 c 0,3.744 0,6.96 -0.192,8.688 -0.144,1.2 -0.384,1.968 -1.248,2.16 -0.384,0.096 -0.864,0.144 -1.488,0.144 -0.528,0 -0.672,0.24 -0.672,0.432 0,0.288 0.288,0.432 0.816,0.432 0.864,0 1.92,-0.048 2.928,-0.096 1.008,0 1.92,-0.048 2.4,-0.048 1.728,0 3.504,0.048 5.616,0.096 2.112,0.096 4.56,0.144 7.584,0.144 2.208,0 2.4,-0.192 2.688,-1.104 0.336,-1.2 0.624,-4.224 0.624,-4.704 0,-0.48 -0.096,-0.912 -0.384,-0.912 -0.336,0 -0.432,0.24 -0.48,0.624 -0.096,0.768 -0.528,1.92 -1.056,2.448 -1.056,1.104 -2.688,1.152 -4.944,1.152 -3.264,0 -4.896,-0.24 -5.616,-0.864 -0.912,-0.768 -0.912,-3.36 -0.912,-8.592 z"
           style="fill:url(#linearGradient4871);fill-opacity:1;stroke:#ffcc00;stroke-width:0.83815801;stroke-miterlimit:4;stroke-dasharray:none;stroke-opacity:1"
           id="path4836"
           inkscape:connector-curvature="0" />
        <path
           d="m 842.18269,932.76304 c 0,3.744 0,6.96 -0.192,8.688 -0.144,1.2 -0.384,1.968 -1.248,2.16 -0.384,0.096 -0.864,0.144 -1.488,0.144 -0.528,0 -0.672,0.24 -0.672,0.432 0,0.288 0.288,0.432 0.816,0.432 0.864,0 1.92,-0.048 2.928,-0.096 1.008,0 1.92,-0.048 2.4,-0.048 1.248,0 2.832,0.048 4.896,0.096 2.064,0.096 4.608,0.144 7.776,0.144 1.584,0 1.968,0 2.256,-1.056 0.24,-0.816 0.576,-3.6 0.576,-4.512 0,-0.432 -0.048,-0.96 -0.384,-0.96 -0.288,0 -0.384,0.192 -0.48,0.624 -0.288,1.68 -0.768,2.544 -1.824,3.024 -1.104,0.48 -2.88,0.528 -3.984,0.528 -4.32,0 -5.616,-0.624 -5.712,-3.408 -0.048,-1.2 0,-4.656 0,-6.048 v -3.264 c 0,-0.24 0.048,-0.432 0.24,-0.432 1.056,0 5.856,0.096 6.624,0.192 1.584,0.144 2.112,0.768 2.352,1.584 0.096,0.528 0.096,1.056 0.144,1.488 0,0.192 0.096,0.336 0.384,0.336 0.384,0 0.432,-0.576 0.432,-0.912 0,-0.288 0.096,-1.92 0.192,-2.736 0.24,-2.064 0.336,-2.736 0.336,-2.976 0,-0.24 -0.144,-0.432 -0.336,-0.432 -0.192,0 -0.336,0.24 -0.672,0.528 -0.432,0.384 -1.008,0.528 -2.016,0.624 -0.96,0.096 -6.432,0.096 -7.392,0.096 -0.24,0 -0.288,-0.192 -0.288,-0.432 v -10.08 c 0,-0.24 0.096,-0.384 0.288,-0.384 0.864,0 5.904,0.096 6.624,0.192 2.112,0.192 2.448,0.768 2.784,1.488 0.24,0.48 0.288,1.2 0.288,1.488 0,0.336 0.048,0.528 0.336,0.528 0.336,0 0.432,-0.48 0.48,-0.672 0.096,-0.48 0.192,-2.256 0.24,-2.688 0.096,-1.872 0.336,-2.352 0.336,-2.64 0,-0.192 -0.048,-0.384 -0.288,-0.384 -0.192,0 -0.432,0.144 -0.672,0.192 -0.336,0.048 -1.008,0.192 -1.776,0.24 -0.816,0.048 -10.176,0 -11.52,0 -1.2,0 -3.888,-0.096 -6.096,-0.096 -0.624,0 -0.96,0.096 -0.96,0.384 0,0.288 0.288,0.432 0.72,0.432 0.624,0 1.344,0.048 1.68,0.144 1.344,0.384 1.728,0.816 1.824,2.208 0.048,1.296 0.048,2.448 0.048,8.64 z"
           style="fill:url(#linearGradient4873);fill-opacity:1;stroke:#ffcc00;stroke-width:0.83815801;stroke-miterlimit:4;stroke-dasharray:none;stroke-opacity:1"
           id="path4838"
           inkscape:connector-curvature="0" />
      </g>
      <g
         id="g5289"
         transform="matrix(1,0,-0.26794919,1,199.83852,145.36333)"
         style="stroke-width:0.55877203">
        <g
           aria-label="[citation needed]"
           transform="scale(1.001546,0.99845638)"
           style="font-style:normal;font-variant:normal;font-weight:normal;font-stretch:normal;font-size:40.04917145px;line-height:89.99999762%;font-family:'DejaVu Sans';-inkscape-font-specification:'DejaVu Sans';font-variant-ligatures:normal;font-variant-position:normal;font-variant-caps:normal;font-variant-numeric:normal;font-variant-alternates:normal;font-feature-settings:normal;text-indent:0;text-align:center;text-decoration:none;text-decoration-line:none;text-decoration-style:solid;text-decoration-color:#000000;letter-spacing:normal;word-spacing:normal;text-transform:none;writing-mode:lr-tb;direction:ltr;text-orientation:mixed;dominant-baseline:auto;baseline-shift:baseline;text-anchor:middle;white-space:normal;shape-padding:0;opacity:1;vector-effect:none;fill:#35b2ff;fill-opacity:1;fill-rule:nonzero;stroke:#ffcc00;stroke-width:0.83815801;stroke-linejoin:miter;stroke-miterlimit:4;stroke-dasharray:none;stroke-dashoffset:0;stroke-opacity:1;paint-order:stroke fill markers"
           id="text5285">
          <path
             d="m 412.55182,764.39324 h 8.29143 v 2.79641 h -4.69326 v 30.1151 h 4.69326 v 2.7964 h -8.29143 z"
             style="font-style:normal;font-variant:normal;font-weight:normal;font-stretch:normal;font-family:'DejaVu Sans';-inkscape-font-specification:'DejaVu Sans';letter-spacing:-1.66871548px;fill:#35b2ff;fill-opacity:1;stroke:none;stroke-width:0.83815801;stroke-miterlimit:4;stroke-dasharray:none;stroke-opacity:1"
             id="path5384"
             inkscape:connector-curvature="0" />
          <path
             d="m 442.62129,773.76021 v 3.36351 q -1.52531,-0.84088 -3.07017,-1.25154 -1.52531,-0.43021 -3.08973,-0.43021 -3.50039,0 -5.43636,2.2293 -1.93597,2.20974 -1.93597,6.21857 0,4.00883 1.93597,6.23813 1.93597,2.20974 5.43636,2.20974 1.56442,0 3.08973,-0.41066 1.54486,-0.43022 3.07017,-1.27109 v 3.32439 q -1.50575,0.70399 -3.12884,1.05599 -1.60353,0.35199 -3.42217,0.35199 -4.94748,0 -7.86121,-3.10929 -2.91374,-3.10928 -2.91374,-8.3892 0,-5.35814 2.93329,-8.42832 2.95285,-3.07017 8.07633,-3.07017 1.66219,0 3.24617,0.35199 1.58397,0.33244 3.07017,1.01687 z"
             style="font-style:normal;font-variant:normal;font-weight:normal;font-stretch:normal;font-family:'DejaVu Sans';-inkscape-font-specification:'DejaVu Sans';letter-spacing:-1.66871548px;fill:#35b2ff;fill-opacity:1;stroke:none;stroke-width:0.83815801;stroke-miterlimit:4;stroke-dasharray:none;stroke-opacity:1"
             id="path5386"
             inkscape:connector-curvature="0" />
          <path
             d="m 447.24937,772.91934 h 3.59817 v 21.90189 h -3.59817 z m 0,-8.5261 h 3.59817 v 4.55638 h -3.59817 z"
             style="font-style:normal;font-variant:normal;font-weight:normal;font-stretch:normal;font-family:'DejaVu Sans';-inkscape-font-specification:'DejaVu Sans';letter-spacing:-1.66871548px;fill:#35b2ff;fill-opacity:1;stroke:none;stroke-width:0.83815801;stroke-miterlimit:4;stroke-dasharray:none;stroke-opacity:1"
             id="path5388"
             inkscape:connector-curvature="0" />
          <path
             d="m 460.2471,766.70076 v 6.21858 h 7.41144 v 2.7964 h -7.41144 v 11.8896 q 0,2.67907 0.72354,3.44172 0.7431,0.76266 2.99196,0.76266 h 3.69594 v 3.01151 h -3.69594 q -4.16527,0 -5.74925,-1.54487 -1.58397,-1.56442 -1.58397,-5.67102 v -11.8896 h -2.63996 v -2.7964 h 2.63996 v -6.21858 z"
             style="font-style:normal;font-variant:normal;font-weight:normal;font-stretch:normal;font-family:'DejaVu Sans';-inkscape-font-specification:'DejaVu Sans';letter-spacing:-1.66871548px;fill:#35b2ff;fill-opacity:1;stroke:none;stroke-width:0.83815801;stroke-miterlimit:4;stroke-dasharray:none;stroke-opacity:1"
             id="path5390"
             inkscape:connector-curvature="0" />
          <path
             d="m 480.69538,783.81162 q -4.36082,0 -6.04257,0.99732 -1.68175,0.99731 -1.68175,3.40261 0,1.91642 1.25153,3.05062 1.2711,1.11465 3.44173,1.11465 2.99195,0 4.79104,-2.11197 1.81864,-2.13152 1.81864,-5.65147 v -0.80176 z m 7.17678,-1.4862 v 12.49581 H 484.274 v -3.3244 q -1.23198,1.99464 -3.07018,2.95285 -1.83819,0.93865 -4.49771,0.93865 -3.3635,0 -5.35814,-1.8773 -1.97508,-1.89686 -1.97508,-5.06482 0,-3.69594 2.46396,-5.57325 2.48352,-1.8773 7.39189,-1.8773 h 5.04526 v -0.352 q 0,-2.48351 -1.64264,-3.83283 -1.62309,-1.36886 -4.57594,-1.36886 -1.8773,0 -3.65683,0.44977 -1.77953,0.44977 -3.42217,1.34931 v -3.32439 q 1.97508,-0.76266 3.83283,-1.13421 1.85775,-0.3911 3.61772,-0.3911 4.75193,0 7.09856,2.46396 2.34663,2.46396 2.34663,7.47011 z"
             style="font-style:normal;font-variant:normal;font-weight:normal;font-stretch:normal;font-family:'DejaVu Sans';-inkscape-font-specification:'DejaVu Sans';letter-spacing:-1.66871548px;fill:#35b2ff;fill-opacity:1;stroke:none;stroke-width:0.83815801;stroke-miterlimit:4;stroke-dasharray:none;stroke-opacity:1"
             id="path5392"
             inkscape:connector-curvature="0" />
          <path
             d="m 497.1935,766.70076 v 6.21858 h 7.41145 v 2.7964 h -7.41145 v 11.8896 q 0,2.67907 0.72355,3.44172 0.7431,0.76266 2.99195,0.76266 h 3.69595 v 3.01151 H 500.909 q -4.16527,0 -5.74924,-1.54487 -1.58398,-1.56442 -1.58398,-5.67102 v -11.8896 h -2.63996 v -2.7964 h 2.63996 v -6.21858 z"
             style="font-style:normal;font-variant:normal;font-weight:normal;font-stretch:normal;font-family:'DejaVu Sans';-inkscape-font-specification:'DejaVu Sans';letter-spacing:-1.66871548px;fill:#35b2ff;fill-opacity:1;stroke:none;stroke-width:0.83815801;stroke-miterlimit:4;stroke-dasharray:none;stroke-opacity:1"
             id="path5394"
             inkscape:connector-curvature="0" />
          <path
             d="m 507.68816,772.91934 h 3.59816 v 21.90189 h -3.59816 z m 0,-8.5261 h 3.59816 v 4.55638 h -3.59816 z"
             style="font-style:normal;font-variant:normal;font-weight:normal;font-stretch:normal;font-family:'DejaVu Sans';-inkscape-font-specification:'DejaVu Sans';letter-spacing:-1.66871548px;fill:#35b2ff;fill-opacity:1;stroke:none;stroke-width:0.83815801;stroke-miterlimit:4;stroke-dasharray:none;stroke-opacity:1"
             id="path5396"
             inkscape:connector-curvature="0" />
          <path
             d="m 525.61381,775.44197 q -2.89417,0 -4.57593,2.26841 -1.68175,2.24885 -1.68175,6.17946 0,3.93061 1.6622,6.19902 1.68175,2.24885 4.59548,2.24885 2.87463,0 4.55638,-2.26841 1.68175,-2.26841 1.68175,-6.17946 0,-3.8915 -1.68175,-6.15991 -1.68175,-2.28796 -4.55638,-2.28796 z m 0,-3.05062 q 4.69327,0 7.37234,3.05062 2.67907,3.05062 2.67907,8.44787 0,5.37769 -2.67907,8.44787 -2.67907,3.05062 -7.37234,3.05062 -4.71281,0 -7.39188,-3.05062 -2.65952,-3.07018 -2.65952,-8.44787 0,-5.39725 2.65952,-8.44787 2.67907,-3.05062 7.39188,-3.05062 z"
             style="font-style:normal;font-variant:normal;font-weight:normal;font-stretch:normal;font-family:'DejaVu Sans';-inkscape-font-specification:'DejaVu Sans';letter-spacing:-1.66871548px;fill:#35b2ff;fill-opacity:1;stroke:none;stroke-width:0.83815801;stroke-miterlimit:4;stroke-dasharray:none;stroke-opacity:1"
             id="path5398"
             inkscape:connector-curvature="0" />
          <path
             d="m 558.14725,781.60187 v 13.21936 h -3.59817 V 781.7192 q 0,-3.10928 -1.21243,-4.65415 -1.21242,-1.54486 -3.63728,-1.54486 -2.91373,0 -4.59548,1.85775 -1.68175,1.85775 -1.68175,5.06481 v 12.37848 h -3.61773 v -21.90189 h 3.61773 v 3.40261 q 1.29064,-1.97508 3.03106,-2.95284 1.75998,-0.97776 4.04794,-0.97776 3.77417,0 5.71014,2.34663 1.93597,2.32707 1.93597,6.86389 z"
             style="font-style:normal;font-variant:normal;font-weight:normal;font-stretch:normal;font-family:'DejaVu Sans';-inkscape-font-specification:'DejaVu Sans';letter-spacing:-1.66871548px;fill:#35b2ff;fill-opacity:1;stroke:none;stroke-width:0.83815801;stroke-miterlimit:4;stroke-dasharray:none;stroke-opacity:1"
             id="path5400"
             inkscape:connector-curvature="0" />
          <path
             d="m 592.98169,781.60187 v 13.21936 h -3.59817 V 781.7192 q 0,-3.10928 -1.21242,-4.65415 -1.21243,-1.54486 -3.63728,-1.54486 -2.91374,0 -4.59549,1.85775 -1.68175,1.85775 -1.68175,5.06481 v 12.37848 h -3.61772 v -21.90189 h 3.61772 v 3.40261 q 1.29065,-1.97508 3.03106,-2.95284 1.75998,-0.97776 4.04794,-0.97776 3.77417,0 5.71014,2.34663 1.93597,2.32707 1.93597,6.86389 z"
             style="font-style:normal;font-variant:normal;font-weight:normal;font-stretch:normal;font-family:'DejaVu Sans';-inkscape-font-specification:'DejaVu Sans';letter-spacing:-1.66871548px;fill:#35b2ff;fill-opacity:1;stroke:none;stroke-width:0.83815801;stroke-miterlimit:4;stroke-dasharray:none;stroke-opacity:1"
             id="path5402"
             inkscape:connector-curvature="0" />
          <path
             d="m 617.26279,782.97074 v 1.75997 h -16.54375 q 0.23467,3.7155 2.2293,5.67103 2.0142,1.93597 5.59281,1.93597 2.07286,0 4.00883,-0.50844 1.95552,-0.50843 3.87194,-1.52531 v 3.40262 q -1.93597,0.82132 -3.96972,1.25153 -2.03375,0.43022 -4.12616,0.43022 -5.24081,0 -8.31098,-3.05062 -3.05063,-3.05062 -3.05063,-8.25232 0,-5.3777 2.89418,-8.52609 2.91374,-3.16795 7.84166,-3.16795 4.41949,0 6.98123,2.85506 2.58129,2.83552 2.58129,7.72433 z m -3.59816,-1.05598 q -0.0391,-2.95285 -1.6622,-4.71282 -1.60353,-1.75997 -4.26305,-1.75997 -3.01151,0 -4.83015,1.7013 -1.79908,1.70131 -2.07285,4.79104 z"
             style="font-style:normal;font-variant:normal;font-weight:normal;font-stretch:normal;font-family:'DejaVu Sans';-inkscape-font-specification:'DejaVu Sans';letter-spacing:-1.66871548px;fill:#35b2ff;fill-opacity:1;stroke:none;stroke-width:0.83815801;stroke-miterlimit:4;stroke-dasharray:none;stroke-opacity:1"
             id="path5404"
             inkscape:connector-curvature="0" />
          <path
             d="m 640.23371,782.97074 v 1.75997 h -16.54375 q 0.23466,3.7155 2.2293,5.67103 2.01419,1.93597 5.5928,1.93597 2.07286,0 4.00883,-0.50844 1.95553,-0.50843 3.87194,-1.52531 v 3.40262 q -1.93597,0.82132 -3.96971,1.25153 -2.03375,0.43022 -4.12616,0.43022 -5.24081,0 -8.31099,-3.05062 -3.05062,-3.05062 -3.05062,-8.25232 0,-5.3777 2.89418,-8.52609 2.91373,-3.16795 7.84166,-3.16795 4.41949,0 6.98123,2.85506 2.58129,2.83552 2.58129,7.72433 z m -3.59817,-1.05598 q -0.0391,-2.95285 -1.66219,-4.71282 -1.60354,-1.75997 -4.26305,-1.75997 -3.01151,0 -4.83015,1.7013 -1.79908,1.70131 -2.07286,4.79104 z"
             style="font-style:normal;font-variant:normal;font-weight:normal;font-stretch:normal;font-family:'DejaVu Sans';-inkscape-font-specification:'DejaVu Sans';letter-spacing:-1.66871548px;fill:#35b2ff;fill-opacity:1;stroke:none;stroke-width:0.83815801;stroke-miterlimit:4;stroke-dasharray:none;stroke-opacity:1"
             id="path5406"
             inkscape:connector-curvature="0" />
          <path
             d="m 658.88292,776.24373 v -11.85049 h 3.59816 v 30.42799 h -3.59816 v -3.28529 q -1.13421,1.95553 -2.87463,2.91374 -1.72086,0.93865 -4.14571,0.93865 -3.96972,0 -6.47279,-3.16795 -2.48352,-3.16795 -2.48352,-8.33054 0,-5.16259 2.48352,-8.33054 2.50307,-3.16795 6.47279,-3.16795 2.42485,0 4.14571,0.9582 1.74042,0.93866 2.87463,2.89418 z m -12.26115,7.64611 q 0,3.96972 1.62308,6.23813 1.64265,2.24885 4.49771,2.24885 2.85507,0 4.49771,-2.24885 1.64265,-2.26841 1.64265,-6.23813 0,-3.96972 -1.64265,-6.21857 -1.64264,-2.26841 -4.49771,-2.26841 -2.85506,0 -4.49771,2.26841 -1.62308,2.24885 -1.62308,6.21857 z"
             style="font-style:normal;font-variant:normal;font-weight:normal;font-stretch:normal;font-family:'DejaVu Sans';-inkscape-font-specification:'DejaVu Sans';letter-spacing:-1.66871548px;fill:#35b2ff;fill-opacity:1;stroke:none;stroke-width:0.83815801;stroke-miterlimit:4;stroke-dasharray:none;stroke-opacity:1"
             id="path5408"
             inkscape:connector-curvature="0" />
          <path
             d="m 686.95774,782.97074 v 1.75997 h -16.54375 q 0.23466,3.7155 2.2293,5.67103 2.01419,1.93597 5.5928,1.93597 2.07286,0 4.00883,-0.50844 1.95553,-0.50843 3.87194,-1.52531 v 3.40262 q -1.93597,0.82132 -3.96971,1.25153 -2.03375,0.43022 -4.12616,0.43022 -5.24081,0 -8.31099,-3.05062 -3.05062,-3.05062 -3.05062,-8.25232 0,-5.3777 2.89418,-8.52609 2.91373,-3.16795 7.84166,-3.16795 4.41949,0 6.98123,2.85506 2.58129,2.83552 2.58129,7.72433 z m -3.59817,-1.05598 q -0.0391,-2.95285 -1.66219,-4.71282 -1.60354,-1.75997 -4.26305,-1.75997 -3.01151,0 -4.83015,1.7013 -1.79908,1.70131 -2.07286,4.79104 z"
             style="font-style:normal;font-variant:normal;font-weight:normal;font-stretch:normal;font-family:'DejaVu Sans';-inkscape-font-specification:'DejaVu Sans';letter-spacing:-1.66871548px;fill:#35b2ff;fill-opacity:1;stroke:none;stroke-width:0.83815801;stroke-miterlimit:4;stroke-dasharray:none;stroke-opacity:1"
             id="path5410"
             inkscape:connector-curvature="0" />
          <path
             d="m 705.60694,776.24373 v -11.85049 h 3.59817 v 30.42799 h -3.59817 v -3.28529 q -1.1342,1.95553 -2.87462,2.91374 -1.72086,0.93865 -4.14571,0.93865 -3.96972,0 -6.47279,-3.16795 -2.48352,-3.16795 -2.48352,-8.33054 0,-5.16259 2.48352,-8.33054 2.50307,-3.16795 6.47279,-3.16795 2.42485,0 4.14571,0.9582 1.74042,0.93866 2.87462,2.89418 z m -12.26114,7.64611 q 0,3.96972 1.62308,6.23813 1.64265,2.24885 4.49771,2.24885 2.85507,0 4.49771,-2.24885 1.64264,-2.26841 1.64264,-6.23813 0,-3.96972 -1.64264,-6.21857 -1.64264,-2.26841 -4.49771,-2.26841 -2.85506,0 -4.49771,2.26841 -1.62308,2.24885 -1.62308,6.21857 z"
             style="font-style:normal;font-variant:normal;font-weight:normal;font-stretch:normal;font-family:'DejaVu Sans';-inkscape-font-specification:'DejaVu Sans';letter-spacing:-1.66871548px;fill:#35b2ff;fill-opacity:1;stroke:none;stroke-width:0.83815801;stroke-miterlimit:4;stroke-dasharray:none;stroke-opacity:1"
             id="path5412"
             inkscape:connector-curvature="0" />
          <path
             d="m 723.35659,764.39324 v 35.70791 h -8.29143 v -2.7964 h 4.67371 v -30.1151 h -4.67371 v -2.79641 z"
             style="font-style:normal;font-variant:normal;font-weight:normal;font-stretch:normal;font-family:'DejaVu Sans';-inkscape-font-specification:'DejaVu Sans';letter-spacing:-1.66871548px;fill:#35b2ff;fill-opacity:1;stroke:none;stroke-width:0.83815801;stroke-miterlimit:4;stroke-dasharray:none;stroke-opacity:1"
             id="path5414"
             inkscape:connector-curvature="0" />
        </g>
        <path
           style="opacity:1;vector-effect:none;fill:#35b2ff;fill-opacity:1;fill-rule:nonzero;stroke:none;stroke-width:0.83815801;stroke-linejoin:miter;stroke-miterlimit:4;stroke-dasharray:none;stroke-dashoffset:0;stroke-opacity:1;paint-order:stroke fill markers"
           d="M 424.92255,796.68079 H 712.742 v 2.04578 H 424.92255 Z"
           id="rect5287"
           inkscape:connector-curvature="0" />
      </g>
    </g>
  </g>
</svg>
